<?xml version="1.0" encoding="iso-8859-1"?>
<!-- Uploaded to: SVG Repo, www.svgrepo.com, Generator: SVG Repo Mixer Tools -->
<svg height="800px" width="800px" version="1.1" id="Layer_1" xmlns="http://www.w3.org/2000/svg" xmlns:xlink="http://www.w3.org/1999/xlink" 
	 viewBox="0 0 512 512" xml:space="preserve">
<path style="fill:#85878D;" d="M155.826,33.391h-33.391c-64.445,0-116.87,52.429-116.87,116.87v116.87
	c0,36.826,29.956,66.783,66.783,66.783c29.532,0,55.903-19.788,64.13-48.119L155.826,33.391z"/>
<path style="fill:#7E7F85;" d="M389.565,33.391h-33.391l19.348,252.403c8.228,28.331,34.598,48.119,64.13,48.119
	c36.826,0,66.783-29.956,66.783-66.783v-116.87C506.435,85.82,454.01,33.391,389.565,33.391z"/>
<path style="fill:#F7E4B3;" d="M155.826,434.098c-8.913,0-17.293-3.478-23.598-9.788c-6.304-6.299-9.771-14.684-9.771-23.614
	c0-8.93,3.467-17.316,9.761-23.603c14.999-15.016,23.608-35.788,23.608-57.006l67.501-2.886
	c-0.718,41.848-15.642,78.875-43.892,107.104C173.119,430.62,164.739,434.098,155.826,434.098L155.826,434.098z"/>
<path style="fill:#A3A5AE;" d="M256,0C154.713,0,72.348,82.365,72.348,183.652c0,58.323,26.823,111.861,73.461,146.922
	c2.894,2.115,6.343,3.339,10.017,3.339h50.087v161.391c0,9.238,7.456,16.696,16.696,16.696h66.783
	c9.239,0,16.696-7.457,16.696-16.696V333.913h50.087c3.674,0,7.123-1.224,10.017-3.339c46.638-35.061,73.461-88.598,73.461-146.922
	C439.652,82.365,357.287,0,256,0z"/>
<path style="fill:#E6C892;" d="M356.174,434.098c-8.913,0-17.293-3.478-23.598-9.788c-28.261-28.233-43.185-65.261-43.185-107.093
	l66.065,2.853c0.718,21.234,9.326,42.005,24.326,57.017c6.293,6.293,9.761,14.679,9.761,23.609c0,8.93-3.467,17.316-9.761,23.603
	C373.467,430.62,365.087,434.098,356.174,434.098z"/>
<path style="fill:#999CA4;" d="M439.652,183.652c0,58.323-26.823,111.861-73.461,146.922c-2.894,2.115-6.343,3.339-10.017,3.339
	h-50.087v161.391c0,9.238-7.456,16.696-16.696,16.696H256V0C357.287,0,439.652,82.365,439.652,183.652z"/>
<circle style="fill:#696B6F;" cx="189.217" cy="183.652" r="16.696"/>
<circle style="fill:#616267;" cx="322.783" cy="183.652" r="16.696"/>
</svg>